<svg xmlns="http://www.w3.org/2000/svg" viewBox="0 0 1200 630" width="1200" height="630"><rect width="1200" height="630" fill="#F4EEE1"/><rect x="0" y="0" width="1200" height="10" fill="#F2A93B"/><g transform="translate(320.0,222.9) scale(0.9973)"><g transform="translate(18.55,18.55)"><g transform="translate(-17.25,-7.39) scale(4.9288)"><path fill="#15543E" d="M12 1.5C7.3 1.5 3.5 5.3 3.5 10c0 5.7 8.5 12.5 8.5 12.5S20.5 15.7 20.5 10c0-4.7-3.8-8.5-8.5-8.5z"/><g fill="#FBF9F3"><rect x="6.2" y="9.55" width="11.6" height="1.7" rx="0.85"/><rect x="6.7" y="5.2" width="2.1" height="8.4" rx="1.05"/><rect x="10.95" y="5.2" width="2.1" height="8.4" rx="1.05"/><rect x="15.2" y="5.2" width="2.1" height="8.4" rx="1.05"/></g></g><g transform="translate(111.97,78.97)"><path fill="#14201B" d="M18.18092041015625 1.4000000000000001Q13.933312988281251 1.4000000000000001 10.457116699218751 -0.21665649414062493Q6.9809204101562505 -1.83331298828125 4.92852783203125 -5.10711669921875Q2.8761352539062504 -8.38092041015625 2.8761352539062504 -13.3714111328125Q2.8761352539062504 -18.0238037109375 4.6832824707031255 -21.01190185546875Q6.490429687500001 -24.0 9.783282470703126 -25.78809814453125Q13.076135253906251 -27.5761962890625 17.464202880859375 -28.650000000000002Q21.852270507812502 -29.723803710937503 26.97601318359375 -30.547607421875Q30.7522705078125 -31.23809814453125 32.94990844726563 -31.745245361328127Q35.14754638671875 -32.252392578125004 36.12849731445313 -33.1761962890625Q37.109448242187504 -34.1 37.109448242187504 -35.80950927734375Q37.109448242187504 -38.46190185546875 35.17610473632813 -40.147607421875Q33.24276123046875 -41.83331298828125 29.433251953125 -41.83331298828125Q26.8618408203125 -41.83331298828125 24.59993896484375 -40.90950927734375Q22.338037109375 -39.98570556640625 20.8142333984375 -38.028558349609376Q19.2904296875 -36.0714111328125 18.83331298828125 -32.95233154296875L4.55711669921875 -35.9950927734375Q5.347546386718751 -40.995153808593756 7.602301025390625 -44.4642333984375Q9.8570556640625 -47.93331298828125 13.290399169921875 -50.097607421875Q16.72374267578125 -52.26190185546875 20.980889892578126 -53.230950927734376Q25.238037109375 -54.2 29.9094482421875 -54.2Q37.871350097656254 -54.2 42.940399169921875 -51.497607421875Q48.0094482421875 -48.79521484375 50.459448242187506 -43.3690185546875Q52.9094482421875 -37.942822265625004 52.9094482421875 -29.733312988281252V-21.138037109375002Q52.9094482421875 -17.65233154296875 53.00230102539062 -14.1166259765625Q53.09515380859375 -10.580920410156251 53.249908447265625 -7.0642639160156255Q53.4046630859375 -3.547607421875 53.6522705078125 0.0H39.528466796875Q39.280859375000006 -2.79527587890625 39.033251953125 -6.1857666015625Q38.78564453125 -9.57625732421875 38.661840820312506 -13.242944335937501H37.19521484375Q36.1761962890625 -9.176257324218751 33.56429443359375 -5.828619384765625Q30.952392578125 -2.4809814453125 27.05 -0.54049072265625Q23.147607421875 1.4000000000000001 18.18092041015625 1.4000000000000001ZM25.25233154296875 -10.152392578125001Q27.0142333984375 -10.152392578125001 28.902331542968753 -10.802392578125001Q30.7904296875 -11.452392578125 32.50947875976563 -12.735736083984374Q34.228527832031254 -14.01907958984375 35.514233398437504 -16.05006103515625Q36.799938964843754 -18.08104248046875 37.29515380859375 -20.804907226562502L37.17135009765625 -26.6714111328125L39.49993896484375 -26.4761962890625Q38.0190185546875 -25.23809814453125 35.89046020507813 -24.5Q33.76190185546875 -23.76190185546875 31.430950927734376 -23.342852783203128Q29.1 -22.923803710937502 26.81190185546875 -22.473803710937503Q24.5238037109375 -22.0238037109375 22.678558349609375 -21.304754638671874Q20.83331298828125 -20.58570556640625 19.738067626953125 -19.366656494140628Q18.642822265625 -18.147607421875 18.642822265625 -16.00950927734375Q18.642822265625 -13.28570556640625 20.523773193359375 -11.719049072265626Q22.40472412109375 -10.152392578125001 25.25233154296875 -10.152392578125001ZM59.371350097656254 0.0V-31.07613525390625V-52.800000000000004H72.57613525390624L72.69993896484375 -35.07601318359375H74.3046630859375Q75.33797607421874 -41.514172363281254 77.58558349609375 -45.7594482421875Q79.83319091796875 -50.00472412109375 83.53319091796875 -52.10236206054688Q87.23319091796876 -54.2 92.4998779296875 -54.2Q101.53319091796875 -54.2 106.19270019531251 -48.00478515625Q110.85220947265626 -41.8095703125 110.85220947265626 -28.652514648437503V0.0H94.65220947265625V-26.73822021484375Q94.65220947265625 -33.9333740234375 92.568896484375 -37.28334350585938Q90.48558349609375 -40.633312988281254 86.26656494140624 -40.633312988281254Q82.77135009765625 -40.633312988281254 80.37849731445313 -38.40950927734375Q77.98564453125 -36.18570556640625 76.74754638671875 -32.042822265625Q75.5094482421875 -27.899938964843752 75.5094482421875 -22.042700195312502V0.0ZM136.93797607421877 17.39515380859375Q133.31895751953127 17.39515380859375 129.31659545898438 16.771350097656253Q125.31423339843751 16.14754638671875 121.62138061523439 14.861840820312501Q117.92852783203125 13.576135253906251 115.07613525390626 11.5666259765625L118.89993896484376 -3.43343505859375Q122.438037109375 -0.0953369140625 127.22849731445314 1.428466796875Q132.01895751953126 2.9522705078125 136.19987792968752 2.9522705078125Q141.3474853515625 2.9522705078125 144.75938720703127 0.94036865234375Q148.17128906250002 -1.071533203125 149.96414184570312 -5.13104248046875Q151.75699462890626 -9.1905517578125 151.9427001953125 -15.2095703125L152.25220947265626 -24.0381591796875H150.423681640625Q149.79036865234377 -17.4095703125 147.61656494140627 -13.176226806640626Q145.44276123046876 -8.94288330078125 141.97371215820314 -6.935736083984375Q138.50466308593752 -4.9285888671875 133.84276123046877 -4.9285888671875Q128.08085937500002 -4.9285888671875 124.23800659179689 -7.8285888671875Q120.39515380859376 -10.7285888671875 118.46420288085938 -16.559539794921875Q116.533251953125 -22.390490722656253 116.533251953125 -31.090490722656252V-52.800000000000004H132.69515380859377V-35.16668701171875Q132.69515380859377 -26.233374023437502 134.52610473632814 -22.302423095703126Q136.3570556640625 -18.37147216796875 140.31895751953127 -18.37147216796875Q142.380859375 -18.37147216796875 144.02371215820312 -19.514324951171876Q145.66656494140625 -20.657177734375 146.79036865234377 -22.838128662109376Q147.91417236328127 -25.019079589843752 148.5070251464844 -28.207177734375Q149.09987792968752 -31.39527587890625 149.09987792968752 -35.44766845703125V-52.800000000000004H165.19987792968752V-14.6095703125Q165.19987792968752 -8.5905517578125 164.06892700195314 -3.5619934082031253Q162.93797607421877 1.46656494140625 160.7070251464844 5.347515869140626Q158.47607421875 9.228466796875 155.09512329101562 11.935614013671875Q151.71417236328125 14.64276123046875 147.19512329101565 16.01895751953125Q142.67607421875002 17.39515380859375 136.93797607421877 17.39515380859375Z"/><path fill="#15543E" d="M176.21423339843753 0.0V-32.547607421875H168.4190185546875V-44.209509277343756L183.46668701171876 -43.419018554687504V-44.9618408203125Q178.79042968750002 -45.661840820312506 176.12374267578127 -47.614233398437506Q173.45705566406252 -49.566625976562506 172.37610473632816 -52.180920410156254Q171.29515380859377 -54.79521484375 171.29515380859377 -57.466625976562504Q171.29515380859377 -61.90472412109375 173.65230102539064 -65.13092041015625Q176.00944824218752 -68.35711669921875 180.2665954589844 -70.09521484375Q184.52374267578128 -71.83331298828125 190.08564453125 -71.83331298828125Q194.83325195312503 -71.83331298828125 198.6618103027344 -70.66426391601563Q202.49036865234376 -69.49521484375 205.08085937500002 -67.5666259765625L204.02846679687502 -52.95233154296875Q201.45227050781253 -54.728527832031254 198.54990844726564 -55.77138061523438Q195.64754638671877 -56.8142333984375 192.98564453125002 -56.8142333984375Q190.1094482421875 -56.8142333984375 188.19039916992188 -55.421380615234376Q186.27135009765627 -54.02852783203125 186.27135009765627 -50.919018554687504Q186.27135009765627 -48.73809814453125 187.2880065917969 -47.43809814453125Q188.30466308593753 -46.138098144531256 190.02371215820315 -45.573803710937504Q191.74276123046877 -45.00950927734375 193.87613525390628 -45.00950927734375H204.92846679687503V-32.547607421875H192.02852783203127V0.0ZM233.17135009765627 1.4000000000000001Q226.228466796875 1.4000000000000001 221.0856140136719 -0.5023925781249999Q215.94276123046876 -2.40478515625 212.50230102539064 -5.938128662109375Q209.0618408203125 -9.47147216796875 207.3404296875 -14.39527587890625Q205.6190185546875 -19.319079589843753 205.6190185546875 -25.36190185546875Q205.6190185546875 -31.43331298828125 207.3166259765625 -36.69521484375Q209.0142333984375 -41.95711669921875 212.3427917480469 -45.88331298828125Q215.67135009765627 -49.80950927734375 220.64515380859376 -52.004754638671876Q225.61895751953125 -54.2 232.1094482421875 -54.2Q238.59993896484377 -54.2 243.44993896484377 -52.03570556640625Q248.29993896484376 -49.871411132812504 251.38564453125002 -45.79521484375Q254.47135009765626 -41.7190185546875 255.7237121582031 -36.064263916015626Q256.97607421875 -30.40950927734375 256.24748535156255 -23.390490722656253L216.02852783203127 -22.9761962890625V-31.5285888671875L245.89024658203127 -31.90478515625L241.4998779296875 -27.547607421875Q242.16177978515626 -32.395214843750004 241.07131958007812 -35.54521484375Q239.98085937500002 -38.69521484375 237.67135009765627 -40.221411132812506Q235.36184082031252 -41.747607421875 232.233251953125 -41.747607421875Q228.6570556640625 -41.747607421875 226.14754638671877 -39.847607421875Q223.638037109375 -37.947607421875 222.3666259765625 -34.404754638671875Q221.09521484375 -30.86190185546875 221.09521484375 -25.852392578125002Q221.09521484375 -17.69049072265625 224.35233154296876 -13.99049072265625Q227.6094482421875 -10.290490722656251 233.14754638671877 -10.290490722656251Q235.733251953125 -10.290490722656251 237.45705566406252 -10.983343505859377Q239.180859375 -11.676196289062501 240.27371215820312 -12.826196289062501Q241.36656494140627 -13.9761962890625 241.92131958007815 -15.471441650390625Q242.47607421875 -16.96668701171875 242.68558349609376 -18.57147216796875L256.99036865234376 -16.3477294921875Q256.6094482421875 -12.8001220703125 255.13328247070314 -9.60963134765625Q253.65711669921876 -6.419140625000001 250.84046020507813 -3.9453063964843755Q248.0238037109375 -1.4714721679687501 243.68331298828127 -0.035736083984375Q239.34282226562502 1.4000000000000001 233.17135009765627 1.4000000000000001ZM261.4713500976563 0.0V-31.07613525390625V-52.800000000000004H274.6761352539063L274.7999389648438 -35.07601318359375H276.40466308593756Q277.4379760742188 -41.514172363281254 279.6855834960938 -45.7594482421875Q281.9331909179688 -50.00472412109375 285.6331909179688 -52.10236206054688Q289.3331909179688 -54.2 294.5998779296875 -54.2Q303.6331909179688 -54.2 308.2927001953126 -48.00478515625Q312.9522094726563 -41.8095703125 312.9522094726563 -28.652514648437503V0.0H296.7522094726563V-26.73822021484375Q296.7522094726563 -33.9333740234375 294.66889648437507 -37.28334350585938Q292.5855834960938 -40.633312988281254 288.3665649414063 -40.633312988281254Q284.8713500976563 -40.633312988281254 282.4784973144532 -38.40950927734375Q280.08564453125007 -36.18570556640625 278.8475463867188 -32.042822265625Q277.60944824218757 -27.899938964843752 277.60944824218757 -22.042700195312502V0.0ZM344.3237426757813 1.4000000000000001Q337.4094482421876 1.4000000000000001 332.2475463867188 -0.5952453613281251Q327.08564453125007 -2.5904907226562504 323.66898803710944 -6.235736083984375Q320.2523315429688 -9.8809814453125 318.5356750488282 -14.842883300781251Q316.81901855468755 -19.804785156250002 316.81901855468755 -25.73809814453125Q316.81901855468755 -31.83331298828125 318.5356750488282 -36.976165771484375Q320.2523315429688 -42.1190185546875 323.64993896484384 -46.01426391601562Q327.0475463867188 -49.90950927734375 332.12849731445317 -52.05475463867188Q337.20944824218753 -54.2 343.93803710937505 -54.2Q351.22380371093755 -54.2 356.15714721679694 -51.69996948242188Q361.09049072265634 -49.19993896484375 363.7595092773438 -44.97371215820313Q366.4285278320313 -40.7474853515625 366.8284667968751 -35.442700195312504L352.2713500976563 -31.866625976562503Q352.16184082031253 -35.28092041015625 350.96423339843756 -37.476165771484375Q349.7666259765626 -39.6714111328125 347.77377319335943 -40.697607421875006Q345.7809204101563 -41.7238037109375 343.2666259765626 -41.7238037109375Q340.8047241210938 -41.7238037109375 338.9237731933594 -40.76190185546875Q337.04282226562503 -39.800000000000004 335.7618713378907 -37.857147216796875Q334.48092041015633 -35.91429443359375 333.79996948242194 -33.083343505859375Q333.11901855468756 -30.252392578125 333.11901855468756 -26.4761962890625Q333.11901855468756 -21.29049072265625 334.39282226562506 -17.721441650390627Q335.66662597656256 -14.152392578125001 338.2023315429688 -12.314294433593751Q340.73803710937506 -10.4761962890625 344.5237426757813 -10.4761962890625Q348.3475463867188 -10.4761962890625 350.4332519531251 -12.152392578125Q352.51895751953134 -13.8285888671875 353.3665649414063 -16.3309814453125Q354.2141723632813 -18.8333740234375 354.18558349609384 -21.2857666015625L368.5284667968751 -19.03822021484375Q368.50944824218755 -15.071533203125 367.1380371093751 -11.385797119140625Q365.7666259765626 -7.70006103515625 362.82377319335944 -4.802423095703125Q359.8809204101563 -1.90478515625 355.3166259765626 -0.25239257812499993Q350.7523315429688 1.4000000000000001 344.3237426757813 1.4000000000000001ZM396.77135009765635 1.4000000000000001Q389.8284667968751 1.4000000000000001 384.68561401367197 -0.5023925781249999Q379.54276123046884 -2.40478515625 376.1023010253907 -5.938128662109375Q372.6618408203126 -9.47147216796875 370.9404296875001 -14.39527587890625Q369.2190185546876 -19.319079589843753 369.2190185546876 -25.36190185546875Q369.2190185546876 -31.43331298828125 370.9166259765626 -36.69521484375Q372.6142333984376 -41.95711669921875 375.94279174804694 -45.88331298828125Q379.27135009765635 -49.80950927734375 384.24515380859384 -52.004754638671876Q389.21895751953133 -54.2 395.7094482421876 -54.2Q402.19993896484385 -54.2 407.0499389648438 -52.03570556640625Q411.89993896484384 -49.871411132812504 414.9856445312501 -45.79521484375Q418.07135009765636 -41.7190185546875 419.3237121582032 -36.064263916015626Q420.5760742187501 -30.40950927734375 419.84748535156257 -23.390490722656253L379.62852783203135 -22.9761962890625V-31.5285888671875L409.4902465820313 -31.90478515625L405.0998779296876 -27.547607421875Q405.76177978515636 -32.395214843750004 404.67131958007826 -35.54521484375Q403.5808593750001 -38.69521484375 401.27135009765635 -40.221411132812506Q398.9618408203126 -41.747607421875 395.8332519531251 -41.747607421875Q392.2570556640626 -41.747607421875 389.74754638671885 -39.847607421875Q387.2380371093751 -37.947607421875 385.96662597656257 -34.404754638671875Q384.6952148437501 -30.86190185546875 384.6952148437501 -25.852392578125002Q384.6952148437501 -17.69049072265625 387.95233154296886 -13.99049072265625Q391.2094482421876 -10.290490722656251 396.74754638671885 -10.290490722656251Q399.3332519531251 -10.290490722656251 401.0570556640626 -10.983343505859377Q402.7808593750001 -11.676196289062501 403.8737121582032 -12.826196289062501Q404.9665649414063 -13.9761962890625 405.52131958007817 -15.471441650390625Q406.0760742187501 -16.96668701171875 406.28558349609386 -18.57147216796875L420.59036865234384 -16.3477294921875Q420.2094482421876 -12.8001220703125 418.7332824707032 -9.60963134765625Q417.25711669921884 -6.419140625000001 414.44046020507824 -3.9453063964843755Q411.6238037109376 -1.4714721679687501 407.2833129882813 -0.035736083984375Q402.94282226562507 1.4000000000000001 396.77135009765635 1.4000000000000001Z"/></g></g></g><g transform="translate(389.1,413.1)"><path fill="#14201B" d="M0.561412004828453 0.0 7.3971178763732315 -19.8H12.842918090745806L19.674337942823765 0.0H15.55641034796834L10.308589433915913 -16.736381923109292H9.942160034179688L4.6807669503986835 0.0ZM4.177144601047039 -4.049975891076028V-6.74786961145699H16.57932944152504V-4.049975891076028ZM27.059985787421464 0.4021440342441201Q24.368552856445312 0.4021440342441201 23.0203373282589 -1.4525009154528379Q21.67212180007249 -3.307145865149796 21.67212180007249 -7.090009547285735V-15.675724138543009H25.482185886986553V-7.452159161791205Q25.482185886986553 -5.074316580444574 26.180751931350677 -3.9436111667566Q26.8793179757148 -2.812905753068626 28.356445835530756 -2.812905753068626Q29.22429739795625 -2.812905753068626 29.889649461787194 -3.2407606288790705Q30.555001525618135 -3.6686155046895146 31.041068245768546 -4.469683162104339Q31.527134965918957 -5.270750819519162 31.797844848409298 -6.383960287738591Q32.068554730899635 -7.49716975595802 32.12355076365173 -8.86645119767636V-15.675724138543009H35.907900870032606V-6.657860281616449L35.9121864971146 0.0H32.737140153944495L32.839273768588896 -5.221436854675412H32.365702427253126Q31.99427416104823 -3.257861240878701 31.307847224492576 -2.013216378316283Q30.621420287936925 -0.7685715157538652 29.573205806035546 -0.18321374075487254Q28.52499132413417 0.4021440342441201 27.059985787421464 0.4021440342441201ZM45.70143236439675 0.4021440342441201Q44.10857609342784 0.4021440342441201 42.83000263759867 0.08714547291398048Q41.55142918176949 -0.22785308841615914 40.635711168553684 -0.8392801339924335Q39.719993155337875 -1.4507071795687079 39.19748899189756 -2.3403496443852783Q38.67498482845724 -3.229992109201848 38.594267142266034 -4.364994507059455L41.63431322392076 -5.311440647654235Q41.695033874697984 -4.458593967966735 42.21181758351624 -3.805741925910115Q42.7286012923345 -3.152889883853495 43.66573728298769 -2.7982491411454973Q44.602873273640874 -2.4436083984375 45.91572174075991 -2.4436083984375Q47.39141571041197 -2.4436083984375 48.21640655513853 -2.910386156346649Q49.04139739986509 -3.3771639142557976 49.04139739986509 -4.24572413854301Q49.04139739986509 -4.88928414478898 48.59354644775391 -5.261064038928598Q48.14569549564273 -5.632843933068216 47.303560158927 -5.885699288472534Q46.46142482221127 -6.138554643876851 45.26285688132048 -6.377125854492188Q44.104994811974464 -6.634270324744284 42.97427690774202 -6.950700051505118Q41.84355900350958 -7.267129778265953 40.90784232001752 -7.788917192816735Q39.972125636525455 -8.310704607367516 39.41176759997383 -9.155706699974836Q38.85140956342221 -10.000708792582154 38.85140956342221 -11.287140808068216Q38.85140956342221 -12.748573128841818 39.6242690387182 -13.814290422722697Q40.397128514014184 -14.880007716603577 41.862133593019095 -15.48000935146585Q43.32713867202401 -16.080010986328123 45.36928889695555 -16.080010986328123Q47.28071812234819 -16.080010986328123 48.72500919900835 -15.529655303936451Q50.169300275668505 -14.979299621544778 51.056091897245494 -13.931442609429359Q51.94288351882249 -12.88358559731394 52.11645743228495 -11.375723310001193L48.95783748071641 -10.512853131964802Q48.90640760142357 -11.38641501288861 48.437481689415876 -11.994267251137643Q47.968555777408184 -12.602119489386677 47.173204803485426 -12.913903002049773Q46.37785382956267 -13.22568651471287 45.30857600625605 -13.22568651471287Q43.94644797194749 -13.22568651471287 43.173243168499326 -12.742479422427714Q42.40003836505115 -12.259272330142558 42.40003836505115 -11.441428963802755Q42.40003836505115 -10.795010681189597 42.88539086485282 -10.398944157231599Q43.37074336465449 -10.0028776332736 44.244309670608494 -9.763950674906372Q45.1178759765625 -9.525023716539144 46.27644557408989 -9.27502393450588Q47.442158203125004 -9.043595581054687 48.55965959820897 -8.736809299997985Q49.67716099329293 -8.430023018941283 50.586449257973584 -7.921807185541838Q51.49573752265424 -7.413591352142394 52.035382298044865 -6.578946271575987Q52.575027073435486 -5.744301191009581 52.575027073435486 -4.439297441728413Q52.575027073435486 -2.907153756245971 51.752525983527306 -1.8196505301073194Q50.93002489361912 -0.732147303968668 49.3946630423516 -0.16500163486227395Q47.859301191084086 0.4021440342441201 45.70143236439675 0.4021440342441201ZM60.72073473248631 0.3435736083984375Q58.241429050974546 0.3435736083984375 57.05356345038861 -0.9800066266581415Q55.86569784980267 -2.3035868617147206 55.86569784980267 -5.100753304548562V-12.643535548634826H53.656418980211015L53.70356275286525 -15.570716857798397H55.02355272542685Q55.99999720975757 -15.605005013532937 56.453933083657176 -15.969298313744368Q56.907868957556786 -16.333591613955797 57.01429940365255 -17.187893895171584L57.312155979685485 -19.17144069135189H59.52361720494926V-15.675724138543009H63.61145394466817V-12.547818516343831H59.52361720494926V-5.267189156636595Q59.52361720494926 -4.146479012556374 60.053973192516715 -3.6382663181237875Q60.58432918008417 -3.130053623691201 61.59789821080864 -3.130053623691201Q62.14646811347455 -3.130053623691201 62.69467880247161 -3.266124114934355Q63.24288949146867 -3.402194606177509 63.69788203652948 -3.719330400712788V-0.15356545586138964Q62.81359313964843 0.14357666015625 62.06609213691205 0.24357513427734373Q61.318591134175655 0.3435736083984375 60.72073473248631 0.3435736083984375ZM66.29712092813104 0.0V-7.893554252162575L66.29283530104905 -15.675724138543009H69.52931121837346L69.41932102762162 -10.025718296840786H69.92289236895739Q70.15788984037935 -12.06930306583643 70.72753263210878 -13.397517591286451Q71.2971754238382 -14.725732116736472 72.28789075579493 -15.383585008922964Q73.27860608775168 -16.041437901109457 74.708607221134 -16.041437901109457Q75.03360778793692 -16.041437901109457 75.41039352407678 -15.991080322265624Q75.78717926021665 -15.940722743421793 76.24432107109575 -15.796437247060238L76.07360499791801 -11.764222542755306Q75.59003047395497 -11.979939880259334 75.07538378030061 -12.072798025868831Q74.56073708664626 -12.16565617147833 74.13359200604259 -12.16565617147833Q72.9750234984979 -12.16565617147833 72.14323965892196 -11.539950387105346Q71.31145581934601 -10.91424460273236 70.80431679870932 -9.759969111923128Q70.29717777807265 -8.605693621113897 70.09289960592984 -7.008556649722158V0.0ZM82.10498622357845 0.4021440342441201Q80.82427189428358 0.4021440342441201 79.79677126212044 -0.08678471155464648Q78.76927062995732 -0.5757134573534131 78.1731985692121 -1.5589278084598481Q77.5771265084669 -2.542142159566283 77.5771265084669 -4.019285409115255Q77.5771265084669 -5.287864946611226 78.05427357265725 -6.158223593551666Q78.53142063684761 -7.0285822404921054 79.46249603267759 -7.586437683105469Q80.39357142850757 -8.144293125718832 81.73821341369302 -8.502148001566528Q83.08285539887845 -8.860002877414226 84.8135592214018 -9.10928863529116Q85.94070098865777 -9.289289986789226 86.61498519888147 -9.44071840563789Q87.28926940910517 -9.592146824486553 87.59462563645094 -9.898216530997306Q87.89998186379671 -10.204286237508057 87.89998186379671 -10.805709359385073Q87.89998186379671 -11.78712746758014 87.21177389960735 -12.442476000096649Q86.523565935418 -13.097824532613158 85.12429600305855 -13.097824532613158Q84.2835848999396 -13.097824532613158 83.49609154840931 -12.799968130923808Q82.70859819687902 -12.502111729234457 82.14860447477548 -11.851401345413178Q81.58861075267195 -11.2006909615919 81.40932652071118 -10.132129429355263L78.01855795729905 -11.043561706356703Q78.28427276607603 -12.331430184356869 78.91106214243919 -13.273220890481024Q79.53785151880234 -14.215011596605182 80.48107077453285 -14.845726536288858Q81.42429003026336 -15.476441475972532 82.63107945028693 -15.778226231150327Q83.83786887031049 -16.080010986328123 85.22429800853133 -16.080010986328123Q87.38859667103738 -16.080010986328123 88.80217483526096 -15.356077771838752Q90.21575299948454 -14.632144557349383 90.92075544085353 -13.141779414508491Q91.62575788222253 -11.6514142716676 91.62575788222253 -9.342832772321998V-6.4157156804949045Q91.62790069576353 -5.394998517483472 91.66432885302231 -4.304285321719944Q91.70075701028108 -3.213572125956416 91.76468462258578 -2.1250019399262965Q91.82861223489046 -1.0364317538961767 91.91504032675176 0.0H88.52713082447647Q88.45141680032015 -0.905709708072245 88.38534482678398 -1.91428231369704Q88.31927285324782 -2.9228549193218347 88.28855834953487 -3.9857151574641465H87.85069933209567Q87.47641701836139 -2.786427089050412 86.6982019697316 -1.7824980816990137Q85.91998692110181 -0.7785690743476152 84.7678428432718 -0.18821252005174757Q83.61569876544178 0.4021440342441201 82.10498622357845 0.4021440342441201ZM83.57931222103537 -2.427180088609457Q84.19716535292565 -2.427180088609457 84.83894725246354 -2.650393393356353Q85.48072915200143 -2.873606698103249 86.08215260082855 -3.320389273390174Q86.68357604965567 -3.7671718486770986 87.17178390489892 -4.453595362901687Q87.65999176014215 -5.140018877126276 87.95498221255839 -6.062153276614844L87.9256958443299 -8.34926343653351L88.66283521380275 -8.267836608923972Q88.18426461361348 -7.845697065107524 87.45962646491824 -7.61248367311433Q86.73498831622302 -7.379270281121134 85.90606754858047 -7.247127881739289Q85.07714678093791 -7.114985482357442 84.25286961156874 -6.961058109831065Q83.42859244219959 -6.807130737304687 82.75574281973763 -6.543919372558594Q82.0828931972757 -6.2807080078125 81.68111223500222 -5.813571406770498Q81.27933127272874 -5.346434805728495 81.27933127272874 -4.532159772589803Q81.27933127272874 -3.535742492638528 81.91861212601884 -2.981461290623993Q82.55789297930896 -2.427180088609457 83.57931222103537 -2.427180088609457ZM95.06712092813105 0.0V-21.179298226498066H98.81218383796514V0.0ZM102.42497750423848 0.0V-15.675724138543009H106.20932761061937V0.0ZM104.32072383340449 -17.962127685472367Q103.16407891665125 -17.962127685472367 102.55988687915962 -18.447030166898315Q101.955694841668 -18.93193264832426 101.955694841668 -19.86585861775436Q101.955694841668 -20.8079448775448 102.56273471458042 -21.29541578942277Q103.16977458749281 -21.78288670130074 104.31793729299443 -21.78288670130074Q105.4910600573113 -21.78288670130074 106.09733533963141 -21.293952113538978Q106.70361062195153 -20.80501752577722 106.70361062195153 -19.865202323144732Q106.70361062195153 -18.94108710720547 106.09547805612442 -18.451607396338918Q105.4873454902973 -17.962127685472367 104.32072383340449 -17.962127685472367ZM113.51498622357845 0.4021440342441201Q112.23427189428358 0.4021440342441201 111.20677126212044 -0.08678471155464648Q110.17927062995732 -0.5757134573534131 109.5831985692121 -1.5589278084598481Q108.9871265084669 -2.542142159566283 108.9871265084669 -4.019285409115255Q108.9871265084669 -5.287864946611226 109.46427357265725 -6.158223593551666Q109.94142063684761 -7.0285822404921054 110.87249603267759 -7.586437683105469Q111.80357142850757 -8.144293125718832 113.14821341369301 -8.502148001566528Q114.49285539887845 -8.860002877414226 116.2235592214018 -9.10928863529116Q117.35070098865776 -9.289289986789226 118.02498519888147 -9.44071840563789Q118.69926940910517 -9.592146824486553 119.00462563645094 -9.898216530997306Q119.30998186379671 -10.204286237508057 119.30998186379671 -10.805709359385073Q119.30998186379671 -11.78712746758014 118.62177389960735 -12.442476000096649Q117.933565935418 -13.097824532613158 116.53429600305854 -13.097824532613158Q115.6935848999396 -13.097824532613158 114.90609154840931 -12.799968130923808Q114.11859819687902 -12.502111729234457 113.55860447477548 -11.851401345413178Q112.99861075267195 -11.2006909615919 112.81932652071117 -10.132129429355263L109.42855795729905 -11.043561706356703Q109.69427276607603 -12.331430184356869 110.32106214243919 -13.273220890481024Q110.94785151880234 -14.215011596605182 111.89107077453285 -14.845726536288858Q112.83429003026336 -15.476441475972532 114.04107945028693 -15.778226231150327Q115.24786887031048 -16.080010986328123 116.63429800853133 -16.080010986328123Q118.79859667103737 -16.080010986328123 120.21217483526095 -15.356077771838752Q121.62575299948453 -14.632144557349383 122.33075544085352 -13.141779414508491Q123.03575788222253 -11.6514142716676 123.03575788222253 -9.342832772321998V-6.4157156804949045Q123.03790069576353 -5.394998517483472 123.07432885302231 -4.304285321719944Q123.11075701028108 -3.213572125956416 123.17468462258577 -2.1250019399262965Q123.23861223489045 -1.0364317538961767 123.32504032675176 0.0H119.93713082447647Q119.86141680032014 -0.905709708072245 119.79534482678397 -1.91428231369704Q119.72927285324782 -2.9228549193218347 119.69855834953486 -3.9857151574641465H119.26069933209567Q118.88641701836139 -2.786427089050412 118.1082019697316 -1.7824980816990137Q117.3299869211018 -0.7785690743476152 116.17784284327179 -0.18821252005174757Q115.02569876544177 0.4021440342441201 113.51498622357845 0.4021440342441201ZM114.98931222103536 -2.427180088609457Q115.60716535292565 -2.427180088609457 116.24894725246354 -2.650393393356353Q116.89072915200143 -2.873606698103249 117.49215260082855 -3.320389273390174Q118.09357604965567 -3.7671718486770986 118.58178390489891 -4.453595362901687Q119.06999176014214 -5.140018877126276 119.36498221255839 -6.062153276614844L119.33569584432989 -8.34926343653351L120.07283521380275 -8.267836608923972Q119.59426461361348 -7.845697065107524 118.86962646491824 -7.61248367311433Q118.14498831622302 -7.379270281121134 117.31606754858046 -7.247127881739289Q116.4871467809379 -7.114985482357442 115.66286961156874 -6.961058109831065Q114.83859244219958 -6.807130737304687 114.16574281973763 -6.543919372558594Q113.49289319727569 -6.2807080078125 113.09111223500221 -5.813571406770498Q112.68933127272874 -5.346434805728495 112.68933127272874 -4.532159772589803Q112.68933127272874 -3.535742492638528 113.32861212601884 -2.981461290623993Q113.96789297930896 -2.427180088609457 114.98931222103536 -2.427180088609457ZM125.379278826043 -6.268543352410197V-9.691456647589803H133.80073325011878V-6.268543352410197ZM138.8328346034512 0.0 134.84427307136357 -15.675724138543009H138.79577052533628L141.30002101354302 -3.090761936791241H141.75859187532217L144.5857050867006 -15.675724138543009H149.1464828053862L151.99716805569827 -3.090761936791241H152.4535975426063L154.9571334399283 -15.675724138543009H158.81648372065277L154.81149514306338 0.0H149.61069811116903L146.97502088259907 -12.367807355448603H146.58573250897228L143.99934273853899 0.0ZM160.9849775042385 0.0V-15.675724138543009H164.76932761061937V0.0ZM162.8807238334045 -17.962127685472367Q161.72407891665125 -17.962127685472367 161.11988687915965 -18.447030166898315Q160.51569484166802 -18.93193264832426 160.51569484166802 -19.86585861775436Q160.51569484166802 -20.8079448775448 161.12273471458042 -21.29541578942277Q161.7297745874928 -21.78288670130074 162.87793729299443 -21.78288670130074Q164.0510600573113 -21.78288670130074 164.6573353396314 -21.293952113538978Q165.26361062195153 -20.80501752577722 165.26361062195153 -19.865202323144732Q165.26361062195153 -18.94108710720547 164.65547805612442 -18.451607396338918Q164.04734549029732 -17.962127685472367 162.8807238334045 -17.962127685472367ZM173.99355678007007 0.4021440342441201Q172.06998814165593 0.4021440342441201 170.63105826236307 -0.5939257812872529Q169.19212838307024 -1.589995596818626 168.3996257673204 -3.4439256069436666Q167.60712315157056 -5.2978556170687074 167.60712315157056 -7.8692933873087165Q167.60712315157056 -10.310012381449342 168.32855189736932 -12.151441149059682Q169.04998064316808 -13.992869916670024 170.44212360927833 -15.020725860614329Q171.8342665753886 -16.048581804558633 173.83998112265022 -16.048581804558633Q175.39854653488845 -16.048581804558633 176.4542603846267 -15.429300362728535Q177.50997423436493 -14.810018920898436 178.17640450604262 -13.67287567142397Q178.84283477772027 -12.535732421949506 179.191407732144 -10.971433541625737H179.7542668803781Q179.58426522374154 -11.955722612701356 179.43247831055896 -12.912507847398519Q179.28069139737636 -13.869293082095682 179.1910482132621 -14.738219473734498Q179.10140502914786 -15.607145865373313 179.10140502914786 -16.295001525990664V-21.179298226498066H182.91361192960292L182.90718348897994 -7.409981340318918L182.9157547431439 0.0H179.66499197803438L179.73641418434678 -4.563587123081088H179.23141366124153Q178.8871286445111 -2.943574480265379 178.20284188393504 -1.8364284406229854Q177.51855512335896 -0.7292824009805917 176.47569750096648 -0.1635691833682358Q175.43283987857401 0.4021440342441201 173.99355678007007 0.4021440342441201ZM175.16716212674976 -2.7336163330078125Q176.14929595928638 -2.7336163330078125 176.89143099082634 -3.183968353215605Q177.63356602236627 -3.6343203734233973 178.1242743789777 -4.3571705843880775Q178.61498273558914 -5.080020795352757 178.86212256280703 -5.9335855972766876Q179.10926239002495 -6.787150399200618 179.10926239002495 -7.583576572984457V-8.023580235019326Q179.10926239002495 -8.637154279500246 178.94926260799167 -9.307864619772882Q178.78926282595842 -9.978574960045517 178.47247898630798 -10.620353742465376Q178.15569514665754 -11.262132524885237 177.67927076049148 -11.780696302223951Q177.20284637432545 -12.299260079562664 176.56678203022108 -12.603897596094757Q175.93071768611668 -12.90853511262685 175.15001469198614 -12.90853511262685Q174.00145459849386 -12.90853511262685 173.20003324231132 -12.252469547744841Q172.39861188612878 -11.59640398286283 171.9750439453125 -10.446413552295416Q171.5514760044962 -9.296423121728003 171.5514760044962 -7.790720868743956Q171.5514760044962 -6.28001953125 171.9857585144229 -5.140027967188507Q172.42004102434962 -4.000036403127014 173.23396347044036 -3.3668263680674135Q174.04788591653107 -2.7336163330078125 175.16716212674976 -2.7336163330078125ZM193.63928937636317 0.4021440342441201Q191.70142499640585 0.4021440342441201 190.22784914279356 -0.1528563145548105Q188.7542732891813 -0.7078566633537411 187.74962790347638 -1.7507143075950444Q186.74498251777143 -2.7935719518363475 186.23033854896204 -4.263215659093111Q185.71569458015264 -5.732859366349876 185.71569458015264 -7.564288896806538Q185.71569458015264 -9.392146170437336 186.21855263851583 -10.946790575254708Q186.72141069687902 -12.50143498007208 187.69319867815824 -13.653936222586779Q188.66498665943743 -14.80643746510148 190.09249091008678 -15.4432242257148Q191.51999516073616 -16.080010986328123 193.35357295442373 -16.080010986328123Q195.09144247870893 -16.080010986328123 196.44751998899505 -15.500007062628864Q197.80359749928118 -14.920003138929605 198.7135987635702 -13.784641047846526Q199.62360002785923 -12.649278956763446 200.0446694945544 -11.004633004255592Q200.4657389612496 -9.359987051747739 200.320021013394 -7.22855978820473L188.1464518520236 -7.117130475640296V-9.320009068027138L197.98640659846365 -9.425009547583759L196.8028220911324 -8.187865382395685Q196.9699666485563 -9.829995640218257 196.55282873963938 -10.909986790157854Q196.13569083072247 -11.98997794009745 195.30641296382993 -12.52532996037975Q194.47713509693742 -13.060681980662048 193.37714556008578 -13.060681980662048Q192.14215545650572 -13.060681980662048 191.2375211661123 -12.41354374475777Q190.33288687571883 -11.766405508853495 189.8496780613996 -10.558914184570312Q189.36646924708037 -9.35142286028713 189.36646924708037 -7.6478636387363075Q189.36646924708037 -5.035730372853577 190.497532850001 -3.746455426923931Q191.62859645292164 -2.457180480994284 193.6521452113241 -2.457180480994284Q194.54713945649564 -2.457180480994284 195.1692766024545 -2.692893960122019Q195.79141374841333 -2.928607439249754 196.2017659212649 -3.3200340487807987Q196.61211809411645 -3.711460658311844 196.84747079014778 -4.213957519344985Q197.0828234861791 -4.716454380378127 197.1921062359214 -5.2478783306479455L200.5371633910015 -4.611445486843586Q200.33573957160115 -3.5050180054083464 199.83145666932688 -2.589301060326397Q199.32717376705259 -1.6735841152444482 198.48074456350878 -1.0042945426516234Q197.63431535996497 -0.33500497005879876 196.4371663121134 0.03356953209266067Q195.24001726426184 0.4021440342441201 193.63928937636317 0.4021440342441201ZM211.14569266185165 0.0V-10.32639330189675H208.5992765154317V-13.167861938551068L212.76786664701999 -12.938576485812664V-13.437860761396587Q211.699276602678 -13.681429879367352 211.03676821036265 -14.226431754045187Q210.37425981804728 -14.771433628723024 210.07354350512847 -15.511793365571647Q209.77282719220966 -16.25215310242027 209.77282719220966 -17.080010375976563Q209.77282719220966 -18.36001320976764 210.40318878192454 -19.308585553877055Q211.03355037163945 -20.25715789798647 212.18891470793636 -20.786443001925946Q213.34427904423328 -21.315728105865418 214.89642939995974 -21.315728105865418Q216.18572413869202 -21.315728105865418 217.23930247725917 -20.977155739981683Q218.29288081582635 -20.638583374097944 218.9850286429748 -20.08501007091254L218.66788639616223 -16.61352582670748Q217.97145228803157 -17.168525695838035 217.11895010825248 -17.493525412436576Q216.26644792847335 -17.818525129035116 215.46073394794018 -17.818525129035116Q214.51502428349107 -17.818525129035116 213.91502591835336 -17.28531729564071Q213.31502755321563 -16.7521094622463 213.31502755321563 -15.645692138671874Q213.31502755321563 -14.911408996693789 213.59967311326415 -14.430699811801313Q213.88431867331266 -13.949990626908837 214.34789470123127 -13.685354113038628Q214.81147072914987 -13.42071759916842 215.32790649399163 -13.334295261986552H218.8343215506524L218.82646497454496 -10.32639330189675H214.85646955221893V0.0ZM228.16928937636317 0.4021440342441201Q226.23142499640585 0.4021440342441201 224.7578491427936 -0.1528563145548105Q223.2842732891813 -0.7078566633537411 222.27962790347635 -1.7507143075950444Q221.27498251777143 -2.7935719518363475 220.76033854896204 -4.263215659093111Q220.24569458015264 -5.732859366349876 220.24569458015264 -7.564288896806538Q220.24569458015264 -9.392146170437336 220.74855263851583 -10.946790575254708Q221.25141069687902 -12.50143498007208 222.2231986781582 -13.653936222586779Q223.19498665943743 -14.80643746510148 224.6224909100868 -15.4432242257148Q226.04999516073616 -16.080010986328123 227.88357295442373 -16.080010986328123Q229.62144247870893 -16.080010986328123 230.97751998899506 -15.500007062628864Q232.33359749928118 -14.920003138929605 233.24359876357022 -13.784641047846526Q234.15360002785923 -12.649278956763446 234.57466949455443 -11.004633004255592Q234.9957389612496 -9.359987051747739 234.850021013394 -7.22855978820473L222.6764518520236 -7.117130475640296V-9.320009068027138L232.51640659846365 -9.425009547583759L231.3328220911324 -8.187865382395685Q231.4999666485563 -9.829995640218257 231.08282873963935 -10.909986790157854Q230.66569083072244 -11.98997794009745 229.83641296382993 -12.52532996037975Q229.00713509693742 -13.060681980662048 227.90714556008578 -13.060681980662048Q226.67215545650572 -13.060681980662048 225.76752116611226 -12.41354374475777Q224.86288687571883 -11.766405508853495 224.3796780613996 -10.558914184570312Q223.89646924708038 -9.35142286028713 223.89646924708038 -7.6478636387363075Q223.89646924708038 -5.035730372853577 225.02753285000102 -3.746455426923931Q226.15859645292164 -2.457180480994284 228.1821452113241 -2.457180480994284Q229.07713945649564 -2.457180480994284 229.6992766024545 -2.692893960122019Q230.32141374841333 -2.928607439249754 230.7317659212649 -3.3200340487807987Q231.14211809411646 -3.711460658311844 231.37747079014778 -4.213957519344985Q231.6128234861791 -4.716454380378127 231.7221062359214 -5.2478783306479455L235.06716339100151 -4.611445486843586Q234.86573957160115 -3.5050180054083464 234.36145666932686 -2.589301060326397Q233.8571737670526 -1.6735841152444482 233.01074456350878 -1.0042945426516234Q232.16431535996497 -0.33500497005879876 230.96716631211342 0.03356953209266067Q229.77001726426184 0.4021440342441201 228.16928937636317 0.4021440342441201ZM237.74712092813107 0.0V-9.299280308783054L237.74283530104907 -15.675724138543009H240.94502336785197L240.8193185862154 -10.475002615973352H241.31503335144373Q241.6757446726039 -12.373575788363814 242.37360089991245 -13.615363617036492Q243.07145712722095 -14.85715144570917 244.17931492399424 -15.468581216018645Q245.28717272076756 -16.080010986328123 246.81074763704092 -16.080010986328123Q249.47575190942734 -16.080010986328123 250.84611125389114 -14.2053674971126Q252.21647059835493 -12.330724007897079 252.21647059835493 -8.427143467962741V0.0H248.4085493249819V-8.043561576157808Q248.4085493249819 -10.522119009979068 247.67462653012947 -11.681040126308798Q246.94070373527705 -12.839961242638529 245.47214250840247 -12.839961242638529Q244.21572514135391 -12.839961242638529 243.34716271547603 -12.042825622558594Q242.47860028959812 -11.245690002478659 242.0207488142699 -9.862840576283634Q241.5628973389417 -8.479991150088608 241.53147103451192 -6.69070691820234V0.0ZM262.7021466064453 0.4021440342441201Q260.6771451240778 0.4021440342441201 259.19464109139517 -0.20892591208219527Q257.7121370587125 -0.8199958584085106 256.7424899727479 -1.9182092286273835Q255.7728428867832 -3.0164225988462565 255.29319702152162 -4.483567156232893Q254.81355115626008 -5.95071171361953 254.81355115626008 -7.662860935740173Q254.81355115626008 -9.461435764767229 255.30891017373654 -10.986079973392188Q255.80426919121297 -12.510724182017148 256.7814153180644 -13.661081891655922Q257.7585614449158 -14.811439601294696 259.2053519112244 -15.44572529381141Q260.65214237753304 -16.080010986328123 262.55500527519735 -16.080010986328123Q264.52358847487716 -16.080010986328123 265.9346636963636 -15.403221697099506Q267.34573891785 -14.726432407870888 268.17930930007253 -13.548213893249631Q269.012879682295 -12.369995378628373 269.2200194440037 -10.832136273868382L265.72067967005074 -9.86783887591213Q265.66425197057424 -10.831415274403989 265.2517543030344 -11.550339965745806Q264.8392566354945 -12.269264657087623 264.11962097179145 -12.65925903316587Q263.3999853080884 -13.04925340924412 262.42071467813105 -13.04925340924412Q261.50929792128505 -13.04925340924412 260.8107347978465 -12.694615107905118Q260.11217167440805 -12.339976806566119 259.63253409247847 -11.65426912570372Q259.1528965105489 -10.968561444841324 258.8982561820373 -10.003568354900924Q258.6436158535257 -9.038575264960526 258.6436158535257 -7.8035802786424755Q258.6436158535257 -6.121442914791405 259.1032549831085 -4.938235517330468Q259.5628941126913 -3.75502811986953 260.4753854587488 -3.1307475935295224Q261.3878768048063 -2.5064670671895146 262.74857626777145 -2.5064670671895146Q263.9671442957595 -2.5064670671895146 264.7224940489791 -2.988968614842743Q265.4778438021988 -3.4714701624959705 265.8581934682466 -4.249682900514454Q266.23854313429445 -5.027895638532937 266.3078242709488 -5.932884695827961L269.69645032603296 -5.282880467064678Q269.5864560807869 -4.050741010420024 269.0978890118748 -3.0078805760107934Q268.6093219429627 -1.9650201416015625 267.7357497514598 -1.1982284545898438Q266.86217755995693 -0.431436767578125 265.6107418387011 -0.014646366667002447Q264.3593061174452 0.4021440342441201 262.7021466064453 0.4021440342441201ZM271.92497750423854 0.0V-15.675724138543009H275.70932761061937V0.0ZM273.8207238334045 -17.962127685472367Q272.66407891665125 -17.962127685472367 272.05988687915965 -18.447030166898315Q271.45569484166805 -18.93193264832426 271.45569484166805 -19.86585861775436Q271.45569484166805 -20.8079448775448 272.0627347145804 -21.29541578942277Q272.66977458749284 -21.78288670130074 273.8179372929945 -21.78288670130074Q274.99106005731136 -21.78288670130074 275.59733533963146 -21.293952113538978Q276.20361062195155 -20.80501752577722 276.20361062195155 -19.865202323144732Q276.20361062195155 -18.94108710720547 275.5954780561244 -18.451607396338918Q274.98734549029734 -17.962127685472367 273.8207238334045 -17.962127685472367ZM279.29712092813105 0.0V-9.299280308783054L279.2928353010491 -15.675724138543009H282.495023367852L282.3693185862154 -10.475002615973352H282.86503335144374Q283.2257446726039 -12.373575788363814 283.92360089991246 -13.615363617036492Q284.62145712722094 -14.85715144570917 285.72931492399425 -15.468581216018645Q286.83717272076757 -16.080010986328123 288.36074763704096 -16.080010986328123Q291.02575190942736 -16.080010986328123 292.39611125389115 -14.2053674971126Q293.76647059835494 -12.330724007897079 293.76647059835494 -8.427143467962741V0.0H289.9585493249819V-8.043561576157808Q289.9585493249819 -10.522119009979068 289.2246265301295 -11.681040126308798Q288.49070373527707 -12.839961242638529 287.0221425084025 -12.839961242638529Q285.7657251413539 -12.839961242638529 284.89716271547604 -12.042825622558594Q284.0286002895981 -11.245690002478659 283.5707488142699 -9.862840576283634Q283.1128973389417 -8.479991150088608 283.08147103451194 -6.69070691820234V0.0ZM303.25642299100764 5.2607158987596625Q300.6849889700488 5.2607158987596625 299.07462942939253 4.865357753187418Q297.46426988873634 4.469999607615173 296.7192698233389 3.6989280700497327Q295.9742697579414 2.927856532484293 295.9742697579414 1.8171433802694081Q295.9742697579414 0.45642948690801854 297.05069852555175 -0.4107120405323803Q298.1271272931621 -1.2778535679727792 300.27998077388855 -1.5178498186916112V-2.034275643490255Q298.64998112272474 -2.0264190673828124 297.8067643520236 -2.406776515468955Q296.96354758132253 -2.7871339635550973 296.96354758132253 -3.63570927221328Q296.96354758132253 -4.463567461408674 297.7939057704807 -5.089642835464328Q298.6242639596388 -5.7157182095199826 300.533554077074 -6.092140328586101V-6.61713819231838Q298.7142694528029 -6.758572518490254 297.70319595342505 -7.836429988313466Q296.69212245404725 -8.914287458136677 296.69212245404725 -10.625717817060648Q296.69212245404725 -12.137859366349876 297.5206937300228 -13.299289877805858Q298.34926500599835 -14.46072038926184 299.9542671204173 -15.127151620052754Q301.55926923483617 -15.793582850843668 303.8549902779982 -15.793582850843668H311.62787091918295V-12.804256068617105L306.6500027463958 -13.499968392513692V-12.931397312767803Q308.5800146919117 -12.61282771524042 309.4596555000544 -11.843190220445393Q310.3392963081971 -11.07355272565037 310.3392963081971 -9.804990408718586Q310.3392963081971 -8.577850908525289 309.56965286253023 -7.634995422363281Q308.80000941686336 -6.692139936201274 307.3382232884132 -6.1660689218156035Q305.876437159963 -5.639997907429933 303.7785806274042 -5.639997907429933Q303.3435794502497 -5.639997907429933 302.8728631590307 -5.678212214950472Q302.4021468678117 -5.716426522471011 301.5328559220583 -5.836426522471011Q300.84572339739657 -5.4064311001449825 300.4678727286123 -5.065007106363773Q300.0900220598281 -4.723583112582564 300.0900220598281 -4.440014604963362Q300.0900220598281 -4.1928767614066595 300.3725126648136 -4.05073636746034Q300.6550032697991 -3.90859597351402 301.1021343123168 -3.851096518468111Q301.5492653548345 -3.7935970634222027 301.990686384067 -3.7935970634222027H306.27715288415556Q306.8685820223764 -3.7935970634222027 307.80929783396425 -3.7039553179778153Q308.75001364555214 -3.6143135725334283 309.695015084222 -3.231813616119325Q310.64001652289187 -2.8493136597052215 311.28787464665254 -2.0107405744493008Q311.9357327704132 -1.1721674891933798 311.9357327704132 0.3435525948554277Q311.9357327704132 2.034986005537212 310.9703751043976 3.1296335710957646Q310.00501743838197 4.224281136654318 308.0807266669349 4.74249851770699Q306.15643589548773 5.2607158987596625 303.25642299100764 5.2607158987596625ZM303.5078624178842 2.146377781368792Q305.43428584489976 2.146377781368792 306.5467768421956 1.9367375400289895Q307.6592678394914 1.7270972986891866 308.1274749753625 1.2806750923767685Q308.59568211123354 0.8342528860643506 308.59568211123354 0.16354884557425975Q308.59568211123354 -0.47072849817574025 308.29283033072954 -0.829652753546834Q307.98997855022554 -1.1885770089179277 307.52605780435727 -1.3342893545888364Q307.06213705848904 -1.480001700259745 306.58393077274786 -1.512858385350555Q306.1057244870067 -1.5457150704413651 305.7607306777686 -1.5457150704413651H302.02071794763214Q300.6314528980852 -1.300009198822081 300.0671729821712 -0.7421591186150908Q299.5028930662573 -0.1843090384081006 299.5028930662573 0.5206853375583886Q299.5028930662573 1.2006754411384464 299.98181492384526 1.5492423792555927Q300.4607367814333 1.8978093173727393 301.3596575708874 2.0220935493707657Q302.2585783603415 2.146377781368792 303.5078624178842 2.146377781368792ZM303.6678529139981 -7.754305594414472Q305.19354588098827 -7.754305594414472 305.9867490713485 -8.482873230054974Q306.77995226170873 -9.211440865695476 306.77995226170873 -10.40571794785559Q306.77995226170873 -11.672851344533264 305.968534851037 -12.482844979427753Q305.1571174403653 -13.292838614322244 303.63142735071483 -13.292838614322244Q302.11716373991226 -13.292838614322244 301.280032152515 -12.496415318101644Q300.44290056511767 -11.699992021881043 300.44290056511767 -10.459285845123231Q300.44290056511767 -9.661435372531413 300.819680677224 -9.049653843529523Q301.19646078933033 -8.437872314527631 301.9164503697306 -8.096088954471051Q302.6364399501309 -7.754305594414472 303.6678529139981 -7.754305594414472ZM312.4707130649686 3.974279741607606Q313.0107130649686 2.5728496442735196 313.23571306496865 1.4089176069013776Q313.4607130649686 0.24498556952923536 313.50571306496863 -0.879666094109416Q313.55071306496865 -2.0043177577480673 313.55071306496865 -3.240049133263528H317.05433916360147Q317.05433916360147 -1.3886031668633223 316.8232662309521 -0.03680849349126225Q316.5921932983026 1.3149861798807978 316.2118335178681 2.288917912077159Q315.8314737374336 3.2628496442735195 315.4207566179708 3.974279741607606ZM332.2614323643968 0.4021440342441201Q330.6685760934279 0.4021440342441201 329.39000263759874 0.08714547291398048Q328.11142918176955 -0.22785308841615914 327.19571116855377 -0.8392801339924335Q326.27999315533793 -1.4507071795687079 325.7574889918976 -2.3403496443852783Q325.2349848284573 -3.229992109201848 325.1542671422661 -4.364994507059455L328.1943132239208 -5.311440647654235Q328.25503387469803 -4.458593967966735 328.7718175835163 -3.805741925910115Q329.28860129233453 -3.152889883853495 330.2257372829877 -2.7982491411454973Q331.1628732736409 -2.4436083984375 332.47572174076 -2.4436083984375Q333.95141571041205 -2.4436083984375 334.7764065551386 -2.910386156346649Q335.60139739986516 -3.3771639142557976 335.60139739986516 -4.24572413854301Q335.60139739986516 -4.88928414478898 335.15354644775397 -5.261064038928598Q334.7056954956428 -5.632843933068216 333.86356015892704 -5.885699288472534Q333.0214248222113 -6.138554643876851 331.82285688132055 -6.377125854492188Q330.6649948119745 -6.634270324744284 329.5342769077421 -6.950700051505118Q328.40355900350966 -7.267129778265953 327.46784232001755 -7.788917192816735Q326.5321256365255 -8.310704607367516 325.9717675999739 -9.155706699974836Q325.41140956342224 -10.000708792582154 325.41140956342224 -11.287140808068216Q325.41140956342224 -12.748573128841818 326.18426903871824 -13.814290422722697Q326.95712851401424 -14.880007716603577 328.42213359301917 -15.48000935146585Q329.8871386720241 -16.080010986328123 331.9292888969556 -16.080010986328123Q333.8407181223482 -16.080010986328123 335.2850091990084 -15.529655303936451Q336.72930027566855 -14.979299621544778 337.61609189724555 -13.931442609429359Q338.50288351882256 -12.88358559731394 338.676457432285 -11.375723310001193L335.5178374807165 -10.512853131964802Q335.4664076014236 -11.38641501288861 334.99748168941596 -11.994267251137643Q334.52855577740826 -12.602119489386677 333.7332048034855 -12.913903002049773Q332.9378538295627 -13.22568651471287 331.8685760062561 -13.22568651471287Q330.5064479719476 -13.22568651471287 329.73324316849937 -12.742479422427714Q328.9600383650512 -12.259272330142558 328.9600383650512 -11.441428963802755Q328.9600383650512 -10.795010681189597 329.44539086485287 -10.398944157231599Q329.9307433646545 -10.0028776332736 330.8043096706085 -9.763950674906372Q331.6778759765626 -9.525023716539144 332.83644557408996 -9.27502393450588Q334.0021582031251 -9.043595581054687 335.11965959820907 -8.736809299997985Q336.237160993293 -8.430023018941283 337.14644925797364 -7.921807185541838Q338.0557375226543 -7.413591352142394 338.5953822980449 -6.578946271575987Q339.13502707343554 -5.744301191009581 339.13502707343554 -4.439297441728413Q339.13502707343554 -2.907153756245971 338.3125259835274 -1.8196505301073194Q337.4900248936192 -0.732147303968668 335.9546630423517 -0.16500163486227395Q334.4193011910842 0.4021440342441201 332.2614323643968 0.4021440342441201ZM348.75428292408594 0.4021440342441201Q346.4521353585274 0.4021440342441201 344.69070301601676 -0.5392832946963608Q342.92927067350604 -1.4807106236368417 341.93248262682937 -3.322497122660279Q340.9356945801527 -5.164283621683716 340.9356945801527 -7.875003182552755Q340.9356945801527 -10.637864074744284 341.9574816895277 -12.455008719339967Q342.9792687989027 -14.272153363935649 344.74355893822394 -15.176082175131885Q346.5078490775452 -16.080010986328123 348.7307143729181 -16.080010986328123Q351.0078648594395 -16.080010986328123 352.7739400808887 -15.14822570800781Q354.5400153023378 -14.2164404296875 355.550373491496 -12.381439819335938Q356.5607316806541 -10.546439208984374 356.5607316806541 -7.8078639003261925Q356.5607316806541 -5.035000741146504 355.5371576580965 -3.207141919825226Q354.5135836355389 -1.3792830985039473 352.7414362007753 -0.4885695321299136Q350.9692887660117 0.4021440342441201 348.75428292408594 0.4021440342441201ZM348.8714268711583 -2.486466456837952Q350.11212860103706 -2.486466456837952 350.97533248895786 -3.081460745707154Q351.8385363768787 -3.6764550345763563 352.2942442538963 -4.8332322693429886Q352.7499521309138 -5.99000950410962 352.7499521309138 -7.615714765302837Q352.7499521309138 -9.32570704869926 352.2692439487205 -10.53748511178419Q351.78853576652716 -11.74926317486912 350.87747499732313 -12.408186994269489Q349.96641422811905 -13.06711081366986 348.6407121494786 -13.06711081366986Q347.4278676060588 -13.06711081366986 346.5518067278714 -12.479615761879831Q345.67574584968395 -11.892120710089802 345.21503827784215 -10.74391411917284Q344.7543307060004 -9.595707528255879 344.7543307060004 -7.930717555470764Q344.7543307060004 -5.318587472140789 345.84896020079043 -3.90252696448937Q346.9435896955804 -2.486466456837952 348.8714268711583 -2.486466456837952ZM359.3671209281311 0.0V-7.893554252162575L359.36283530104913 -15.675724138543009H362.59931121837354L362.4893210276217 -10.025718296840786H362.9928923689575Q363.2278898403794 -12.06930306583643 363.79753263210887 -13.397517591286451Q364.36717542383826 -14.725732116736472 365.357890755795 -15.383585008922964Q366.34860608775176 -16.041437901109457 367.77860722113405 -16.041437901109457Q368.103607787937 -16.041437901109457 368.4803935240769 -15.991080322265624Q368.85717926021675 -15.940722743421793 369.31432107109583 -15.796437247060238L369.1436049979181 -11.764222542755306Q368.66003047395503 -11.979939880259334 368.1453837803007 -12.072798025868831Q367.6307370866463 -12.16565617147833 367.2035920060427 -12.16565617147833Q366.045023498498 -12.16565617147833 365.213239658922 -11.539950387105346Q364.38145581934606 -10.91424460273236 363.8743167987094 -9.759969111923128Q363.36717777807274 -8.605693621113897 363.1628996059299 -7.008556649722158V0.0ZM377.01073473248636 0.3435736083984375Q374.5314290509746 0.3435736083984375 373.3435634503887 -0.9800066266581415Q372.1556978498027 -2.3035868617147206 372.1556978498027 -5.100753304548562V-12.643535548634826H369.9464189802111L369.99356275286533 -15.570716857798397H371.3135527254269Q372.2899972097576 -15.605005013532937 372.7439330836572 -15.969298313744368Q373.1978689575568 -16.333591613955797 373.3042994036526 -17.187893895171584L373.6021559796855 -19.17144069135189H375.8136172049493V-15.675724138543009H379.9014539446682V-12.547818516343831H375.8136172049493V-5.267189156636595Q375.8136172049493 -4.146479012556374 376.3439731925167 -3.6382663181237875Q376.8743291800842 -3.130053623691201 377.88789821080866 -3.130053623691201Q378.4364681134746 -3.130053623691201 378.98467880247165 -3.266124114934355Q379.5328894914687 -3.402194606177509 379.9878820365295 -3.719330400712788V-0.15356545586138964Q379.10359313964847 0.14357666015625 378.3560921369121 0.24357513427734373Q377.6085911341757 0.3435736083984375 377.01073473248636 0.3435736083984375ZM389.7192893763632 0.4021440342441201Q387.78142499640586 0.4021440342441201 386.3078491427936 -0.1528563145548105Q384.83427328918134 -0.7078566633537411 383.8296279034764 -1.7507143075950444Q382.82498251777145 -2.7935719518363475 382.310338548962 -4.263215659093111Q381.79569458015266 -5.732859366349876 381.79569458015266 -7.564288896806538Q381.79569458015266 -9.392146170437336 382.29855263851584 -10.946790575254708Q382.8014106968791 -12.50143498007208 383.7731986781583 -13.653936222586779Q384.7449866594375 -14.80643746510148 386.1724909100868 -15.4432242257148Q387.59999516073617 -16.080010986328123 389.43357295442377 -16.080010986328123Q391.17144247870897 -16.080010986328123 392.5275199889951 -15.500007062628864Q393.8835974992812 -14.920003138929605 394.79359876357023 -13.784641047846526Q395.70360002785924 -12.649278956763446 396.12466949455444 -11.004633004255592Q396.54573896124964 -9.359987051747739 396.40002101339405 -7.22855978820473L384.2264518520237 -7.117130475640296V-9.320009068027138L394.0664065984637 -9.425009547583759L392.8828220911324 -8.187865382395685Q393.04996664855634 -9.829995640218257 392.6328287396394 -10.909986790157854Q392.2156908307225 -11.98997794009745 391.38641296383 -12.52532996037975Q390.5571350969375 -13.060681980662048 389.4571455600858 -13.060681980662048Q388.22215545650573 -13.060681980662048 387.31752116611233 -12.41354374475777Q386.41288687571887 -11.766405508853495 385.9296780613996 -10.558914184570312Q385.4464692470804 -9.35142286028713 385.4464692470804 -7.6478636387363075Q385.4464692470804 -5.035730372853577 386.57753285000103 -3.746455426923931Q387.70859645292165 -2.457180480994284 389.7321452113241 -2.457180480994284Q390.6271394564957 -2.457180480994284 391.24927660245453 -2.692893960122019Q391.8714137484134 -2.928607439249754 392.28176592126493 -3.3200340487807987Q392.6921180941165 -3.711460658311844 392.9274707901478 -4.213957519344985Q393.16282348617915 -4.716454380378127 393.2721062359214 -5.2478783306479455L396.61716339100155 -4.611445486843586Q396.4157395716012 -3.5050180054083464 395.9114566693269 -2.589301060326397Q395.40717376705265 -1.6735841152444482 394.5607445635088 -1.0042945426516234Q393.714315359965 -0.33500497005879876 392.51716631211343 0.03356953209266067Q391.3200172642619 0.4021440342441201 389.7192893763632 0.4021440342441201ZM404.9335567800701 0.4021440342441201Q403.0099881416559 0.4021440342441201 401.57105826236307 -0.5939257812872529Q400.13212838307027 -1.589995596818626 399.3396257673204 -3.4439256069436666Q398.5471231515706 -5.2978556170687074 398.5471231515706 -7.8692933873087165Q398.5471231515706 -10.310012381449342 399.2685518973693 -12.151441149059682Q399.9899806431681 -13.992869916670024 401.3821236092784 -15.020725860614329Q402.77426657538865 -16.048581804558633 404.7799811226502 -16.048581804558633Q406.33854653488845 -16.048581804558633 407.3942603846267 -15.429300362728535Q408.44997423436496 -14.810018920898436 409.1164045060426 -13.67287567142397Q409.78283477772027 -12.535732421949506 410.131407732144 -10.971433541625737H410.69426688037817Q410.52426522374157 -11.955722612701356 410.37247831055896 -12.912507847398519Q410.22069139737636 -13.869293082095682 410.13104821326215 -14.738219473734498Q410.0414050291479 -15.607145865373313 410.0414050291479 -16.295001525990664V-21.179298226498066H413.85361192960295L413.84718348897997 -7.409981340318918L413.85575474314396 0.0H410.6049919780344L410.6764141843468 -4.563587123081088H410.17141366124156Q409.8271286445111 -2.943574480265379 409.14284188393503 -1.8364284406229854Q408.45855512335896 -0.7292824009805917 407.41569750096653 -0.1635691833682358Q406.37283987857404 0.4021440342441201 404.9335567800701 0.4021440342441201ZM406.10716212674976 -2.7336163330078125Q407.0892959592864 -2.7336163330078125 407.83143099082633 -3.183968353215605Q408.5735660223663 -3.6343203734233973 409.06427437897776 -4.3571705843880775Q409.5549827355892 -5.080020795352757 409.8021225628071 -5.9335855972766876Q410.049262390025 -6.787150399200618 410.049262390025 -7.583576572984457V-8.023580235019326Q410.049262390025 -8.637154279500246 409.8892626079917 -9.307864619772882Q409.7292628259585 -9.978574960045517 409.412478986308 -10.620353742465376Q409.09569514665753 -11.262132524885237 408.61927076049153 -11.780696302223951Q408.1428463743255 -12.299260079562664 407.5067820302211 -12.603897596094757Q406.87071768611673 -12.90853511262685 406.09001469198614 -12.90853511262685Q404.9414545984939 -12.90853511262685 404.14003324231135 -12.252469547744841Q403.33861188612883 -11.59640398286283 402.9150439453125 -10.446413552295416Q402.49147600449623 -9.296423121728003 402.49147600449623 -7.790720868743956Q402.49147600449623 -6.28001953125 402.9257585144229 -5.140027967188507Q403.36004102434964 -4.000036403127014 404.1739634704404 -3.3668263680674135Q404.9878859165311 -2.7336163330078125 406.10716212674976 -2.7336163330078125ZM418.6546017111879 0.37000122070312497Q417.40572945736346 0.37000122070312497 416.78179231921206 -0.17000610351562498Q416.1578551810607 -0.7100134277343749 416.1578551810607 -1.8472322460071693Q416.1578551810607 -3.005043029822409 416.783756463239 -3.5439789472706615Q417.40965774541723 -4.082914864718914 418.6548044615391 -4.082914864718914Q419.93433715827763 -4.082914864718914 420.5672031948343 -3.5439789472706615Q421.20006923139096 -3.005043029822409 421.20006923139096 -1.8435996355488895Q421.20006923139096 0.37000122070312497 418.6546017111879 0.37000122070312497Z"/></g></svg>