<svg xmlns="http://www.w3.org/2000/svg" viewBox="0 0 320 190" role="img" aria-label="Horizontal slat gate component diagram">
  <rect x="9" y="8" width="302" height="174" rx="12" fill="#f8fafc" stroke="#cbd5e1"/>
  <rect x="46" y="43" width="14" height="122" rx="2" fill="#64748b"/>
  <rect x="260" y="43" width="14" height="122" rx="2" fill="#64748b"/>
  <rect x="74" y="47" width="172" height="14" rx="2" fill="#64748b"/>
  <rect x="74" y="166" width="172" height="14" rx="2" fill="#64748b"/>
  <rect x="81" y="64" width="158" height="98" rx="2" fill="#334155" stroke="#94a3b8"/>
  <g fill="#475569">
    <rect x="84" y="70" width="154" height="5" rx="1"/>
    <rect x="84" y="78" width="154" height="5" rx="1"/>
    <rect x="84" y="86" width="154" height="5" rx="1"/>
    <rect x="84" y="94" width="154" height="5" rx="1"/>
    <rect x="84" y="102" width="154" height="5" rx="1"/>
    <rect x="84" y="110" width="154" height="5" rx="1"/>
    <rect x="84" y="118" width="154" height="5" rx="1"/>
    <rect x="84" y="126" width="154" height="5" rx="1"/>
    <rect x="84" y="134" width="154" height="5" rx="1"/>
    <rect x="84" y="142" width="154" height="5" rx="1"/>
    <rect x="84" y="150" width="154" height="5" rx="1"/>
  </g>
</svg>
