<svg xmlns="http://www.w3.org/2000/svg" viewBox="0 0 320 190" role="img" aria-label="Vertical slat gate component diagram">
  <rect x="9" y="8" width="302" height="174" rx="12" fill="#f8fafc" stroke="#cbd5e1"/>
  <rect x="46" y="43" width="14" height="122" rx="2" fill="#64748b"/>
  <rect x="260" y="43" width="14" height="122" rx="2" fill="#64748b"/>
  <rect x="74" y="47" width="172" height="14" rx="2" fill="#64748b"/>
  <rect x="74" y="166" width="172" height="14" rx="2" fill="#64748b"/>
  <rect x="81" y="64" width="158" height="98" rx="2" fill="#334155" stroke="#94a3b8"/>
  <g fill="#475569">
    <rect x="91" y="71" width="7" height="92" rx="1"/>
    <rect x="103" y="71" width="7" height="92" rx="1"/>
    <rect x="115" y="71" width="7" height="92" rx="1"/>
    <rect x="127" y="71" width="7" height="92" rx="1"/>
    <rect x="139" y="71" width="7" height="92" rx="1"/>
    <rect x="151" y="71" width="7" height="92" rx="1"/>
    <rect x="163" y="71" width="7" height="92" rx="1"/>
    <rect x="175" y="71" width="7" height="92" rx="1"/>
    <rect x="187" y="71" width="7" height="92" rx="1"/>
    <rect x="199" y="71" width="7" height="92" rx="1"/>
    <rect x="211" y="71" width="7" height="92" rx="1"/>
  </g>
</svg>
